<mxfile host="app.diagrams.net" modified="2020-11-21T11:17:22.153Z" agent="5.0 (X11)" etag="N-ukLfy9FOwe7hC58Z6Y" version="13.10.0" type="github">
  <diagram id="mL5rF6ahkpmDCyWBRrw3" name="Page-1">
    <mxGraphModel dx="1022" dy="695" grid="1" gridSize="10" guides="1" tooltips="1" connect="1" arrows="1" fold="1" page="1" pageScale="1" pageWidth="850" pageHeight="1100" math="0" shadow="0">
      <root>
        <mxCell id="0" />
        <mxCell id="1" parent="0" />
        <mxCell id="hyXzqiFq0XC-d8y5IQXb-1" value="" style="rounded=0;whiteSpace=wrap;html=1;" vertex="1" parent="1">
          <mxGeometry x="270" y="10" width="100" height="30" as="geometry" />
        </mxCell>
        <mxCell id="hyXzqiFq0XC-d8y5IQXb-2" value="" style="rounded=0;whiteSpace=wrap;html=1;" vertex="1" parent="1">
          <mxGeometry x="120" y="80" width="150" height="110" as="geometry" />
        </mxCell>
        <mxCell id="hyXzqiFq0XC-d8y5IQXb-5" value="C1 : Customer" style="text;html=1;strokeColor=none;fillColor=none;align=center;verticalAlign=middle;whiteSpace=wrap;rounded=0;" vertex="1" parent="1">
          <mxGeometry x="130" y="80" width="130" height="20" as="geometry" />
        </mxCell>
        <mxCell id="hyXzqiFq0XC-d8y5IQXb-6" value="" style="endArrow=none;html=1;exitX=0;exitY=0;exitDx=0;exitDy=0;entryX=1;entryY=0.182;entryDx=0;entryDy=0;entryPerimeter=0;" edge="1" parent="1" source="hyXzqiFq0XC-d8y5IQXb-7" target="hyXzqiFq0XC-d8y5IQXb-2">
          <mxGeometry width="50" height="50" relative="1" as="geometry">
            <mxPoint x="160" y="150" as="sourcePoint" />
            <mxPoint x="210" y="100" as="targetPoint" />
            <Array as="points">
              <mxPoint x="240" y="100" />
            </Array>
          </mxGeometry>
        </mxCell>
        <mxCell id="hyXzqiFq0XC-d8y5IQXb-7" value="&lt;div align=&quot;left&quot;&gt;&lt;br&gt;&lt;/div&gt;&lt;div align=&quot;left&quot;&gt;- Name :Harrison&lt;/div&gt;&lt;div align=&quot;left&quot;&gt;&lt;br&gt;&lt;/div&gt;&lt;div align=&quot;left&quot;&gt;&lt;br&gt;&lt;/div&gt;&lt;div align=&quot;left&quot;&gt;- Address : Anna Nagar,&lt;/div&gt;&lt;div align=&quot;left&quot;&gt;Chennai, Tamil Nadu&lt;br&gt;&lt;/div&gt;&lt;div align=&quot;left&quot;&gt;&lt;br&gt;&lt;/div&gt;&lt;div align=&quot;left&quot;&gt;&lt;br&gt;&lt;/div&gt;" style="text;html=1;strokeColor=none;fillColor=none;align=left;verticalAlign=middle;whiteSpace=wrap;rounded=0;" vertex="1" parent="1">
          <mxGeometry x="120" y="100" width="150" height="90" as="geometry" />
        </mxCell>
        <mxCell id="hyXzqiFq0XC-d8y5IQXb-8" style="edgeStyle=orthogonalEdgeStyle;rounded=0;orthogonalLoop=1;jettySize=auto;html=1;exitX=0.5;exitY=1;exitDx=0;exitDy=0;" edge="1" parent="1" source="hyXzqiFq0XC-d8y5IQXb-2" target="hyXzqiFq0XC-d8y5IQXb-2">
          <mxGeometry relative="1" as="geometry" />
        </mxCell>
        <mxCell id="hyXzqiFq0XC-d8y5IQXb-9" value="" style="rounded=0;whiteSpace=wrap;html=1;" vertex="1" parent="1">
          <mxGeometry x="370" y="80" width="150" height="110" as="geometry" />
        </mxCell>
        <mxCell id="hyXzqiFq0XC-d8y5IQXb-10" value="C2 : Customer" style="text;html=1;strokeColor=none;fillColor=none;align=center;verticalAlign=middle;whiteSpace=wrap;rounded=0;" vertex="1" parent="1">
          <mxGeometry x="380" y="80" width="130" height="20" as="geometry" />
        </mxCell>
        <mxCell id="hyXzqiFq0XC-d8y5IQXb-11" value="" style="endArrow=none;html=1;entryX=1;entryY=0.182;entryDx=0;entryDy=0;entryPerimeter=0;" edge="1" parent="1" target="hyXzqiFq0XC-d8y5IQXb-9">
          <mxGeometry width="50" height="50" relative="1" as="geometry">
            <mxPoint x="372" y="100" as="sourcePoint" />
            <mxPoint x="460" y="100" as="targetPoint" />
            <Array as="points">
              <mxPoint x="490" y="100" />
            </Array>
          </mxGeometry>
        </mxCell>
        <mxCell id="hyXzqiFq0XC-d8y5IQXb-12" value="&lt;div align=&quot;left&quot;&gt;- Name :Jennifer&lt;/div&gt;&lt;div align=&quot;left&quot;&gt;&lt;br&gt;&lt;/div&gt;&lt;div align=&quot;left&quot;&gt;&lt;br&gt;&lt;/div&gt;&lt;div align=&quot;left&quot;&gt;&amp;nbsp;- Address : Anna Nagar,&lt;/div&gt;&lt;div align=&quot;left&quot;&gt;Chennai, Tamil Nadu&lt;br&gt;&lt;/div&gt;&lt;div align=&quot;left&quot;&gt;&lt;br&gt;&lt;/div&gt;&lt;div align=&quot;left&quot;&gt;&lt;br&gt;&lt;/div&gt;" style="text;html=1;strokeColor=none;fillColor=none;align=left;verticalAlign=middle;whiteSpace=wrap;rounded=0;" vertex="1" parent="1">
          <mxGeometry x="370" y="110" width="150" height="90" as="geometry" />
        </mxCell>
        <mxCell id="hyXzqiFq0XC-d8y5IQXb-13" style="edgeStyle=orthogonalEdgeStyle;rounded=0;orthogonalLoop=1;jettySize=auto;html=1;exitX=0.5;exitY=1;exitDx=0;exitDy=0;" edge="1" parent="1" source="hyXzqiFq0XC-d8y5IQXb-9" target="hyXzqiFq0XC-d8y5IQXb-9">
          <mxGeometry relative="1" as="geometry" />
        </mxCell>
        <mxCell id="hyXzqiFq0XC-d8y5IQXb-14" value="" style="rounded=0;whiteSpace=wrap;html=1;" vertex="1" parent="1">
          <mxGeometry x="120" y="220" width="150" height="90" as="geometry" />
        </mxCell>
        <mxCell id="hyXzqiFq0XC-d8y5IQXb-15" value="L1 : Login" style="text;html=1;strokeColor=none;fillColor=none;align=center;verticalAlign=middle;whiteSpace=wrap;rounded=0;" vertex="1" parent="1">
          <mxGeometry x="130" y="220" width="130" height="20" as="geometry" />
        </mxCell>
        <mxCell id="hyXzqiFq0XC-d8y5IQXb-17" value="&lt;div align=&quot;left&quot;&gt;&lt;br&gt;&lt;/div&gt;&lt;div align=&quot;left&quot;&gt;- Id - harry@gamil.com&lt;br&gt;&lt;/div&gt;&lt;div align=&quot;left&quot;&gt;&lt;br&gt;&lt;/div&gt;&lt;div align=&quot;left&quot;&gt;- Password : harry2321&lt;br&gt;&lt;/div&gt;&lt;div align=&quot;left&quot;&gt;&lt;br&gt;&lt;/div&gt;&lt;div align=&quot;left&quot;&gt;&lt;br&gt;&lt;/div&gt;" style="text;html=1;strokeColor=none;fillColor=none;align=left;verticalAlign=middle;whiteSpace=wrap;rounded=0;" vertex="1" parent="1">
          <mxGeometry x="120" y="245" width="150" height="60" as="geometry" />
        </mxCell>
        <mxCell id="hyXzqiFq0XC-d8y5IQXb-18" style="edgeStyle=orthogonalEdgeStyle;rounded=0;orthogonalLoop=1;jettySize=auto;html=1;exitX=0.5;exitY=1;exitDx=0;exitDy=0;" edge="1" parent="1" source="hyXzqiFq0XC-d8y5IQXb-14" target="hyXzqiFq0XC-d8y5IQXb-14">
          <mxGeometry relative="1" as="geometry" />
        </mxCell>
        <mxCell id="hyXzqiFq0XC-d8y5IQXb-24" value="" style="endArrow=none;html=1;exitX=0;exitY=0.25;exitDx=0;exitDy=0;entryX=1;entryY=0.25;entryDx=0;entryDy=0;" edge="1" parent="1" source="hyXzqiFq0XC-d8y5IQXb-14" target="hyXzqiFq0XC-d8y5IQXb-14">
          <mxGeometry width="50" height="50" relative="1" as="geometry">
            <mxPoint x="30" y="280" as="sourcePoint" />
            <mxPoint x="80" y="230" as="targetPoint" />
          </mxGeometry>
        </mxCell>
        <mxCell id="hyXzqiFq0XC-d8y5IQXb-25" value="" style="rounded=0;whiteSpace=wrap;html=1;" vertex="1" parent="1">
          <mxGeometry x="370" y="220" width="150" height="90" as="geometry" />
        </mxCell>
        <mxCell id="hyXzqiFq0XC-d8y5IQXb-26" value="L2 : Login" style="text;html=1;strokeColor=none;fillColor=none;align=center;verticalAlign=middle;whiteSpace=wrap;rounded=0;" vertex="1" parent="1">
          <mxGeometry x="380" y="220" width="130" height="20" as="geometry" />
        </mxCell>
        <mxCell id="hyXzqiFq0XC-d8y5IQXb-27" value="&lt;div align=&quot;left&quot;&gt;&lt;br&gt;&lt;/div&gt;&lt;div align=&quot;left&quot;&gt;- Id - jenny@gamil.com&lt;br&gt;&lt;/div&gt;&lt;div align=&quot;left&quot;&gt;&lt;br&gt;&lt;/div&gt;&lt;div align=&quot;left&quot;&gt;- Password : jenniferqueen&lt;br&gt;&lt;/div&gt;&lt;div align=&quot;left&quot;&gt;&lt;br&gt;&lt;/div&gt;&lt;div align=&quot;left&quot;&gt;&lt;br&gt;&lt;/div&gt;" style="text;html=1;strokeColor=none;fillColor=none;align=left;verticalAlign=middle;whiteSpace=wrap;rounded=0;" vertex="1" parent="1">
          <mxGeometry x="370" y="245" width="150" height="60" as="geometry" />
        </mxCell>
        <mxCell id="hyXzqiFq0XC-d8y5IQXb-28" style="edgeStyle=orthogonalEdgeStyle;rounded=0;orthogonalLoop=1;jettySize=auto;html=1;exitX=0.5;exitY=1;exitDx=0;exitDy=0;" edge="1" parent="1" source="hyXzqiFq0XC-d8y5IQXb-25" target="hyXzqiFq0XC-d8y5IQXb-25">
          <mxGeometry relative="1" as="geometry" />
        </mxCell>
        <mxCell id="hyXzqiFq0XC-d8y5IQXb-29" value="" style="endArrow=none;html=1;exitX=0;exitY=0.25;exitDx=0;exitDy=0;entryX=1;entryY=0.25;entryDx=0;entryDy=0;" edge="1" parent="1" source="hyXzqiFq0XC-d8y5IQXb-25" target="hyXzqiFq0XC-d8y5IQXb-25">
          <mxGeometry width="50" height="50" relative="1" as="geometry">
            <mxPoint x="280" y="280" as="sourcePoint" />
            <mxPoint x="330" y="230" as="targetPoint" />
          </mxGeometry>
        </mxCell>
        <mxCell id="hyXzqiFq0XC-d8y5IQXb-30" value="" style="rounded=0;whiteSpace=wrap;html=1;" vertex="1" parent="1">
          <mxGeometry x="120" y="340" width="150" height="90" as="geometry" />
        </mxCell>
        <mxCell id="hyXzqiFq0XC-d8y5IQXb-31" value="L1 : Login" style="text;html=1;strokeColor=none;fillColor=none;align=center;verticalAlign=middle;whiteSpace=wrap;rounded=0;" vertex="1" parent="1">
          <mxGeometry x="130" y="340" width="130" height="20" as="geometry" />
        </mxCell>
        <mxCell id="hyXzqiFq0XC-d8y5IQXb-32" value="&lt;div align=&quot;left&quot;&gt;&lt;br&gt;&lt;/div&gt;&lt;div align=&quot;left&quot;&gt;- Id - Harry@gamil.com&lt;br&gt;&lt;/div&gt;&lt;div align=&quot;left&quot;&gt;&lt;br&gt;&lt;/div&gt;&lt;div align=&quot;left&quot;&gt;- Password : harry2321&lt;br&gt;&lt;/div&gt;&lt;div align=&quot;left&quot;&gt;&lt;br&gt;&lt;/div&gt;&lt;div align=&quot;left&quot;&gt;&lt;br&gt;&lt;/div&gt;" style="text;html=1;strokeColor=none;fillColor=none;align=left;verticalAlign=middle;whiteSpace=wrap;rounded=0;" vertex="1" parent="1">
          <mxGeometry x="120" y="365" width="150" height="60" as="geometry" />
        </mxCell>
        <mxCell id="hyXzqiFq0XC-d8y5IQXb-33" style="edgeStyle=orthogonalEdgeStyle;rounded=0;orthogonalLoop=1;jettySize=auto;html=1;exitX=0.5;exitY=1;exitDx=0;exitDy=0;" edge="1" parent="1" source="hyXzqiFq0XC-d8y5IQXb-30" target="hyXzqiFq0XC-d8y5IQXb-30">
          <mxGeometry relative="1" as="geometry" />
        </mxCell>
        <mxCell id="hyXzqiFq0XC-d8y5IQXb-34" value="" style="endArrow=none;html=1;exitX=0;exitY=0.25;exitDx=0;exitDy=0;entryX=1;entryY=0.25;entryDx=0;entryDy=0;" edge="1" parent="1" source="hyXzqiFq0XC-d8y5IQXb-30" target="hyXzqiFq0XC-d8y5IQXb-30">
          <mxGeometry width="50" height="50" relative="1" as="geometry">
            <mxPoint x="30" y="400" as="sourcePoint" />
            <mxPoint x="80" y="350" as="targetPoint" />
          </mxGeometry>
        </mxCell>
      </root>
    </mxGraphModel>
  </diagram>
</mxfile>
